arm26_states
version=1
nRows=27
nColumns=17
inDegrees=yes

# SIMM Motion File Header:
name arm26_states
datacolumns 17
datarows 27
otherdata 1
range 0.80774475 0.84642278
endheader
time	r_shoulder_elev	r_elbow_flex	r_shoulder_elev_u	r_elbow_flex_u	TRIlong.activation	TRIlong.fiber_length	TRIlat.activation	TRIlat.fiber_length	TRImed.activation	TRImed.fiber_length	BIClong.activation	BIClong.fiber_length	BICshort.activation	BICshort.fiber_length	BRA.activation	BRA.fiber_length
      0.80774475	    -15.90076112	     84.57539157	    -18.99187101	     10.36044201	      0.00000688	      0.15833457	      0.09471953	      0.10168628	      0.09192265	      0.09672604	      0.18770462	      0.10733827	      0.00134401	      0.10676862	      0.00007162	      0.07090129
      0.81041800	    -15.95107569	     84.60269880	    -18.64944125	     10.07027750	      0.00000682	      0.15830869	      0.09539272	      0.10169247	      0.09258341	      0.09673240	      0.18805870	      0.10732936	      0.00131702	      0.10676519	      0.00007129	      0.07089071
      0.81309125	    -16.00046485	     84.62922421	    -18.29982459	      9.77443336	      0.00000675	      0.15829100	      0.09604198	      0.10169848	      0.09322267	      0.09673857	      0.18838388	      0.10732094	      0.00128849	      0.10676210	      0.00007058	      0.07088042
      0.81679736	    -16.06736525	     84.66469107	    -17.79974342	      9.36632621	      0.00000663	      0.15826189	      0.09691156	      0.10170654	      0.09408155	      0.09674684	      0.18879781	      0.10731011	      0.00124648	      0.10675845	      0.00006898	      0.07086667
      0.82050347	    -16.13238186	     84.69863998	    -17.28498845	      8.94917737	      0.00000649	      0.15824211	      0.09775554	      0.10171429	      0.09492021	      0.09675478	      0.18914687	      0.10730025	      0.00121167	      0.10675544	      0.00006734	      0.07085350
      0.82307322	    -16.17632825	     84.72127146	    -16.91636751	      8.66444715	      0.00000640	      0.15821807	      0.09832989	      0.10171946	      0.09549449	      0.09676006	      0.18934506	      0.10729403	      0.00119652	      0.10675350	      0.00006652	      0.07084470
      0.82564298	    -16.21931916	     84.74316101	    -16.54149694	      8.37111408	      0.00000631	      0.15820206	      0.09889510	      0.10172446	      0.09606173	      0.09676516	      0.18951627	      0.10728830	      0.00118718	      0.10675160	      0.00006589	      0.07083617
      0.82958773	    -16.28341152	     84.77528525	    -15.95015799	      7.91545844	      0.00000618	      0.15817400	      0.09967546	      0.10173184	      0.09684520	      0.09677268	      0.18973071	      0.10728049	      0.00114939	      0.10674919	      0.00006431	      0.07082365
      0.83286117	    -16.33480231	     84.80056319	    -15.44702680	      7.52609863	      0.00000608	      0.15815593	      0.10024549	      0.10173781	      0.09741701	      0.09677874	      0.18987400	      0.10727487	      0.00108856	      0.10674844	      0.00006217	      0.07081378
      0.83613460	    -16.38452654	     84.82455770	    -14.93099160	      7.13494825	      0.00000598	      0.15813082	      0.10079112	      0.10174362	      0.09796324	      0.09678463	      0.18996088	      0.10727003	      0.00102411	      0.10674893	      0.00005995	      0.07080440
      0.83940803	    -16.43254468	     84.84725618	    -14.40609179	      6.72915131	      0.00000590	      0.15811652	      0.10135512	      0.10174917	      0.09852607	      0.09679026	      0.18996482	      0.10726605	      0.00098835	      0.10674984	      0.00005856	      0.07079551
      0.84232165	    -16.47382411	     84.86633534	    -13.92759944	      6.36746303	      0.00000583	      0.15809350	      0.10186712	      0.10175380	      0.09903594	      0.09679496	      0.18994801	      0.10726324	      0.00097902	      0.10675040	      0.00005798	      0.07078800
      0.84523526	    -16.51369852	     84.88434263	    -13.44234610	      5.99093127	      0.00000576	      0.15807992	      0.10235035	      0.10175815	      0.09951722	      0.09679937	      0.18991435	      0.10726107	      0.00097537	      0.10675069	      0.00005757	      0.07078089
      0.84531652	    -16.51479025	     84.88482901	    -13.42864899	      5.98044958	      0.00000576	      0.15807933	      0.10236324	      0.10175826	      0.09953007	      0.09679949	      0.18991317	      0.10726102	      0.00097525	      0.10675070	      0.00005755	      0.07078070
      0.84539602	    -16.51585728	     84.88530404	    -13.41524405	      5.97018104	      0.00000576	      0.15807877	      0.10237583	      0.10175838	      0.09954261	      0.09679961	      0.18991199	      0.10726097	      0.00097513	      0.10675070	      0.00005754	      0.07078051
      0.84540865	    -16.51602670	     84.88537943	    -13.41311399	      5.96854845	      0.00000576	      0.15807868	      0.10237783	      0.10175840	      0.09954460	      0.09679962	      0.18991180	      0.10726096	      0.00097511	      0.10675070	      0.00005754	      0.07078048
      0.84541553	    -16.51611899	     84.88542050	    -13.41195342	      5.96765884	      0.00000576	      0.15807863	      0.10237892	      0.10175841	      0.09954568	      0.09679963	      0.18991170	      0.10726096	      0.00097510	      0.10675071	      0.00005754	      0.07078046
      0.84541849	    -16.51615874	     84.88543819	    -13.41145362	      5.96727570	      0.00000576	      0.15807861	      0.10237938	      0.10175841	      0.09954615	      0.09679964	      0.18991166	      0.10726095	      0.00097510	      0.10675071	      0.00005754	      0.07078046
      0.84541977	    -16.51617586	     84.88544579	    -13.42546437	      5.94411788	      0.00000576	      0.15811951	      0.10237959	      0.10175841	      0.09954635	      0.09679964	      0.18991164	      0.10726095	      0.00097509	      0.10675071	      0.00005754	      0.07078045
      0.84542105	    -16.51619300	     84.88545336	    -13.44221909	      5.91652668	      0.00000576	      0.15816829	      0.10237979	      0.10175841	      0.09954655	      0.09679964	      0.18991162	      0.10726095	      0.00097509	      0.10675071	      0.00005754	      0.07078045
      0.84542743	    -16.51627904	     84.88549068	    -13.52439004	      5.78118527	      0.00000576	      0.15840751	      0.10238080	      0.10175842	      0.09954756	      0.09679965	      0.18991152	      0.10726095	      0.00097508	      0.10675071	      0.00005754	      0.07078043
      0.84545933	    -16.51671663	     84.88566504	    -13.89774621	      5.16567175	      0.00000576	      0.15949415	      0.10238583	      0.10175847	      0.09955258	      0.09679970	      0.18991105	      0.10726093	      0.00097504	      0.10675071	      0.00005753	      0.07078036
      0.84561885	    -16.51904040	     84.88631230	    -15.07967807	      3.20713292	      0.00000576	      0.16292610	      0.10241096	      0.10175870	      0.09957762	      0.09679993	      0.18990863	      0.10726083	      0.00097479	      0.10675073	      0.00005751	      0.07077999
      0.84577837	    -16.52149387	     84.88674345	    -15.61131400	      2.31349922	      0.00000575	      0.16445529	      0.10243599	      0.10175892	      0.09960255	      0.09680016	      0.18990616	      0.10726074	      0.00097455	      0.10675076	      0.00005749	      0.07077963
      0.84593788	    -16.52400598	     84.88707506	    -15.85406290	      1.89510482	      0.00000575	      0.16513701	      0.10246091	      0.10175914	      0.09962739	      0.09680038	      0.18990365	      0.10726067	      0.00097429	      0.10675081	      0.00005746	      0.07077929
      0.84614763	    -16.52734897	     84.88744089	    -16.00533513	      1.62257739	      0.00000575	      0.16553907	      0.10249351	      0.10175942	      0.09965988	      0.09680066	      0.18990026	      0.10726058	      0.00097396	      0.10675091	      0.00005743	      0.07077887
      0.84642278	    -16.53176902	     84.88785667	    -16.11190536	      1.41680264	      0.00000574	      0.16579550	      0.10253602	      0.10175978	      0.09970226	      0.09680102	      0.18989569	      0.10726051	      0.00097351	      0.10675110	      0.00005739	      0.07077837
